<?xml version="1.0" encoding="iso-8859-1"?>
<!-- Generator: Adobe Illustrator 19.0.0, SVG Export Plug-In . SVG Version: 6.00 Build 0)  -->
<svg fill="#00fa47" version="1.1" id="Layer_1" xmlns="http://www.w3.org/2000/svg" xmlns:xlink="http://www.w3.org/1999/xlink" x="0px" y="0px"
	 viewBox="0 0 512 512" style="enable-background:new 0 0 512 512;" xml:space="preserve">
<g>
	<g>
		<g>
			<path d="M3.217,126.14L224.87,302.686c1.579,1.331,15.821,13.047,31.13,13.047c15.377,0,29.747-11.281,31.292-12.535
				l221.5-177.067c2.031-1.621,3.208-4.07,3.208-6.664C512,95.94,492.86,76.8,469.333,76.8H42.667C19.14,76.8,0,95.94,0,119.467
				C0,122.069,1.186,124.518,3.217,126.14z M42.667,93.867h426.667c12.8,0,23.441,9.446,25.31,21.726L276.599,289.894
				c-3.038,2.44-12.672,8.772-20.599,8.772c-7.689,0-17.109-6.502-20.284-9.165L17.357,115.584
				C19.234,103.305,29.867,93.867,42.667,93.867z"/>
			<path d="M156.86,274.893L37.393,368.759c-3.703,2.91-4.343,8.277-1.434,11.981c1.681,2.142,4.181,3.26,6.707,3.26
				c1.852,0,3.712-0.597,5.274-1.826l119.467-93.867c3.703-2.91,4.344-8.277,1.434-11.981
				C165.931,272.614,160.563,271.983,156.86,274.893z"/>
			<path d="M355.14,274.893c-3.703-2.91-9.071-2.27-11.981,1.434s-2.27,9.071,1.434,11.981l119.467,93.867
				c1.562,1.229,3.422,1.826,5.265,1.826c2.526,0,5.035-1.118,6.716-3.26c2.91-3.703,2.27-9.071-1.434-11.981L355.14,274.893z"/>
			<path d="M503.467,153.6c-4.71,0-8.533,3.823-8.533,8.533v230.4c0,14.114-11.486,25.6-25.6,25.6H42.667
				c-14.114,0-25.6-11.486-25.6-25.6v-230.4c0-4.71-3.823-8.533-8.533-8.533S0,157.423,0,162.133v230.4
				C0,416.06,19.14,435.2,42.667,435.2h426.667c23.526,0,42.667-19.14,42.667-42.667v-230.4
				C512,157.423,508.177,153.6,503.467,153.6z"/>
		</g>
	</g>
</g>
<g>
</g>
<g>
</g>
<g>
</g>
<g>
</g>
<g>
</g>
<g>
</g>
<g>
</g>
<g>
</g>
<g>
</g>
<g>
</g>
<g>
</g>
<g>
</g>
<g>
</g>
<g>
</g>
<g>
</g>
</svg>
